<svg width="165" height="75" viewBox="0 0 165 75" fill="none" xmlns="http://www.w3.org/2000/svg">
<path d="M117.49 53.1999C117.491 53.4123 117.573 53.6163 117.72 53.7699C117.795 53.8444 117.884 53.9031 117.982 53.9426C118.08 53.9821 118.184 54.0016 118.29 53.9999C118.499 53.9965 118.699 53.9143 118.85 53.7699L134.38 38.3999C134.431 38.3199 134.468 38.232 134.49 38.1399C134.52 38.0252 134.52 37.9046 134.49 37.7899L134.49 37.6699C134.49 37.5701 134.47 37.4714 134.43 37.3799C134.398 37.2845 134.343 37.1985 134.27 37.1299L118.75 21.6099C118.674 21.5386 118.586 21.4811 118.49 21.4399C118.392 21.3998 118.286 21.3794 118.18 21.3799C118.077 21.3796 117.975 21.4 117.88 21.4399C117.783 21.4786 117.694 21.5364 117.62 21.6099C117.481 21.7612 117.404 21.9593 117.404 22.1649C117.404 22.3705 117.481 22.5686 117.62 22.7199L131.91 36.8899L0.779946 36.8899C0.674652 36.8921 0.570868 36.9154 0.474697 36.9583C0.378527 37.0013 0.291912 37.063 0.219946 37.1399C0.0801077 37.2929 0.00256367 37.4926 0.00256367 37.6999C0.00256367 37.9072 0.0801077 38.1069 0.219946 38.2599C0.293583 38.3332 0.380948 38.3912 0.477041 38.4307C0.573133 38.4701 0.676066 38.4903 0.779946 38.4899L131.9 38.4899L117.72 52.6399C117.647 52.7135 117.589 52.8009 117.549 52.897C117.51 52.9931 117.49 53.096 117.49 53.1999V53.1999Z" fill="white"/>
<path opacity="0.3" d="M164.5 37.5C164.5 57.9343 147.928 74.5 127.485 74.5C107.041 74.5 90.4687 57.9343 90.4687 37.5C90.4687 17.0657 107.041 0.500001 127.485 0.500002C147.928 0.500003 164.5 17.0657 164.5 37.5Z" stroke="white"/>
</svg>
