<svg width="135" height="33" viewBox="0 0 135 33" fill="none" xmlns="http://www.w3.org/2000/svg">
<path d="M117.49 32.1999C117.491 32.4123 117.573 32.6163 117.72 32.7699C117.795 32.8444 117.884 32.9031 117.982 32.9426C118.08 32.9821 118.184 33.0016 118.29 32.9999C118.499 32.9965 118.699 32.9143 118.85 32.7699L134.38 17.3999C134.431 17.3199 134.468 17.232 134.49 17.1399C134.52 17.0252 134.52 16.9046 134.49 16.7899L134.49 16.6699C134.49 16.5701 134.47 16.4714 134.43 16.3799C134.398 16.2845 134.343 16.1985 134.27 16.1299L118.75 0.609899C118.674 0.538591 118.586 0.481065 118.49 0.439897C118.392 0.399755 118.286 0.37937 118.18 0.379899C118.077 0.379632 117.975 0.400032 117.88 0.439897C117.783 0.478558 117.694 0.536373 117.62 0.609899C117.481 0.761236 117.404 0.959318 117.404 1.1649C117.404 1.37048 117.481 1.56856 117.62 1.7199L131.91 15.8899L0.779946 15.8899C0.674652 15.8921 0.570868 15.9154 0.474697 15.9583C0.378527 16.0013 0.291912 16.063 0.219946 16.1399C0.0801077 16.2929 0.00256367 16.4926 0.00256367 16.6999C0.00256367 16.9072 0.0801077 17.1069 0.219946 17.2599C0.293583 17.3332 0.380948 17.3912 0.477041 17.4307C0.573133 17.4701 0.676066 17.4903 0.779946 17.4899L131.9 17.4899L117.72 31.6399C117.647 31.7135 117.589 31.8009 117.549 31.897C117.51 31.9931 117.49 32.096 117.49 32.1999V32.1999Z" fill="white"/>
</svg>
